<svg xmlns="http://www.w3.org/2000/svg" xmlns:xlink="http://www.w3.org/1999/xlink" viewBox="0 0 26 26" fill="#5B5B5B">
  <path d="M13 0C9.6875 0 7 2.6875 7 6C7 9.3125 12.21875 17.542969 12.21875 22L13.78125 22C13.78125 17.558594 19 9.042969 19 6C19 2.6875 16.3125 0 13 0 Z M 13 3C14.65625 3 16 4.34375 16 6C16 7.65625 14.65625 9 13 9C11.34375 9 10 7.65625 10 6C10 4.34375 11.34375 3 13 3 Z M 6.84375 17.28125C6.824219 17.289063 6.800781 17.300781 6.78125 17.3125C4.9375 17.636719 3.371094 18.082031 2.1875 18.6875C1.59375 18.992188 1.082031 19.351563 0.6875 19.78125C0.292969 20.210938 0 20.773438 0 21.40625C0 22.355469 0.628906 23.09375 1.375 23.625C2.121094 24.15625 3.066406 24.558594 4.21875 24.90625C6.523438 25.597656 9.605469 26 13 26C16.394531 26 19.476563 25.597656 21.78125 24.90625C22.933594 24.558594 23.878906 24.15625 24.625 23.625C25.371094 23.09375 26 22.355469 26 21.40625C26 20.773438 25.710938 20.183594 25.3125 19.75C24.914063 19.316406 24.40625 18.992188 23.8125 18.6875C22.621094 18.082031 21.042969 17.636719 19.1875 17.3125C18.828125 17.234375 18.457031 17.359375 18.21875 17.636719C17.976563 17.917969 17.910156 18.304688 18.039063 18.644531C18.171875 18.988281 18.480469 19.234375 18.84375 19.28125C20.566406 19.582031 22 20.007813 22.90625 20.46875C23.359375 20.699219 23.679688 20.945313 23.84375 21.125C24.007813 21.304688 24 21.375 24 21.40625C24 21.453125 23.9375 21.667969 23.46875 22C23 22.332031 22.207031 22.695313 21.1875 23C19.148438 23.609375 16.230469 24 13 24C9.769531 24 6.851563 23.609375 4.8125 23C3.792969 22.695313 3 22.332031 2.53125 22C2.0625 21.667969 2 21.453125 2 21.40625C2 21.375 1.992188 21.304688 2.15625 21.125C2.320313 20.945313 2.644531 20.699219 3.09375 20.46875C3.996094 20.007813 5.410156 19.582031 7.125 19.28125C7.675781 19.203125 8.0625 18.691406 7.984375 18.140625C7.90625 17.589844 7.394531 17.203125 6.84375 17.28125Z" fill="#5B5B5B" />
</svg>